poster: 
http://www.dl4up.com/wp-content/uploads/2012/06/Carl-2012.jpg

INFO
Complete name: Carl.2012.VODRip.XviD-XTREME.avi
Format: AVI
Format/Info: Audio Video Interleave
File size: 698 MiB
Duration: 1h 30mn
Overall bit rate: 1 076 Kbps


 
http://www.imdb.com/title/tt2241069/

SOURCE : VODRIP.HS...thanks 

Video
ID: 0
Format: MPEG-4 Visual
Format profile: Advanced Simple@L5
Format settings, BVOP: 2
Format settings, QPel: No
Format settings, GMC: No warppoints
Format settings, Matrix: Default (H.263)
Codec ID: XVID
Codec ID/Hint: XviD
Duration: 1h 30mn
Bit rate: 685 Kbps
Width: 640 pixels
Height: 360 pixels
Display aspect ratio: 16:9
Frame rate: 24.000 fps
Color space: YUV
Chroma subsampling: 4:2:0
Bit depth: 8 bits
Scan type: Progressive
Compression mode: Lossy
Bits/(Pixel*Frame): 0.124
Stream size: 444 MiB (64%)
Writing library: XviD 1.2.1 (UTC 2008-12-04)



Audio
ID: 1
Format: AC-3
Format/Info: Audio Coding 3
Mode extension: CM (complete main)
Format settings, Endianness: Big
Codec ID: 2000
Duration: 1h 30mn
Bit rate mode: Constant
Bit rate: 384 Kbps
Channel(s): 2 channels
Channel positions: Front: L R
Sampling rate: 44.1 KHz
Bit depth: 16 bits
Compression mode: Lossy
Stream size: 249 MiB (36%)
Alignment: Aligned on interleaves
Interleave, duration: 70 ms (1.67 video frames)
Interleave, preload duration: 208 ms


SCREENS 
http://t.imgbox.com/aadztUb3.jpg 
http://t.imgbox.com/aad0LqFt.jpg 
http://t.imgbox.com/aaqCTwpr.jpg 
http://t.imgbox.com/aayYggJv.jpg 
http://t.imgbox.com/aanXkEWj.jpg 
http://t.imgbox.com/aamNgJUD.jpg 
http://t.imgbox.com/aanTFFL7.jpg 
http://i.imgbox.com/aatdObE5.jpg